<?xml version="1.0" encoding="utf-8" standalone="yes"?>
<!DOCTYPE svg PUBLIC "-//W3C//DTD SVG 1.1//EN" "http://www.w3.org/Graphics/SVG/1.1/DTD/svg11.dtd">
<svg width="982" height="602" viewBox="0 0 982 602" style="fill:none;stroke:none;fill-rule:evenodd;clip-rule:evenodd;stroke-linecap:round;stroke-linejoin:round;stroke-miterlimit:1.5;" version="1.1" xmlns="http://www.w3.org/2000/svg" xmlns:xlink="http://www.w3.org/1999/xlink"><style id="fontImports">@import url("https://fonts.googleapis.com/css2?family=Roboto:wght@400;700&amp;display=block");</style><rect id="" x="0" y="0" width="982" height="602" style="fill: none;"></rect><g id="items" style="isolation: isolate"><g id="blend" style="mix-blend-mode: normal"><g id="g-root-tf_140hpv5u05beo-fill" data-item-order="-588000" transform="translate(-9, -9)"></g><g id="g-root--1.line_fr_mb31gxu0krnp-fill" data-item-order="-469683" transform="translate(146.5, 231)"></g><g id="g-root--1.line_1_fr_dfg181u0ksgf-fill" data-item-order="-469679" transform="translate(350.5, 231)"></g><g id="g-root--1.line_2_fr_hv9jchu0ksg1-fill" data-item-order="-469675" transform="translate(554.5, 231)"></g><g id="g-root--1.line_3_fr_hv9jchu0ksg3-fill" data-item-order="-469671" transform="translate(758.5, 231)"></g><g id="g-root-1.g-1_1_fr_8zmj3lu0kt8t-fill" data-item-order="-469668" transform="translate(85.00003051757812, 279)"></g><g id="g-root-2.g-2_fr_8zmj3lu0kt8v-fill" data-item-order="-469664" transform="translate(289.0000305175781, 279)"></g><g id="g-root-3.g-3_1_fr_4jt0z5u0ku15-fill" data-item-order="-469660" transform="translate(493, 279)"></g><g id="g-root-4.g-4_fr_4jt0z5u0ku17-fill" data-item-order="-469656" transform="translate(697, 279)"></g><g id="g-root-tx_datarese_4lzxtu0krnp-fill" data-item-order="0" transform="translate(391, 39)"><g id="tx_datarese_4lzxtu0krnp-fill" stroke="none" fill="#484848"><g><text style="font: 20px Roboto, sans-serif; white-space: pre;" font-size="20px" font-family="Roboto, sans-serif"><tspan x="12.96" y="34" dominant-baseline="ideographic">Data Reset Process</tspan></text></g></g></g><g id="g-root-tx_clickres_1qa31o1u0ks9a-fill" data-item-order="0" transform="translate(75, 123)"><g id="tx_clickres_1qa31o1u0ks9a-fill" stroke="none" fill="#484848"><g><text style="font: bold 20px Roboto, sans-serif; white-space: pre;" font-weight="bold" font-size="20px" font-family="Roboto, sans-serif"><tspan x="16.9" y="34" dominant-baseline="ideographic">Click Reset </tspan><tspan x="37.63" y="58" dominant-baseline="ideographic">Button</tspan></text></g></g></g><g id="g-root-4_1heg1f5u0ktts-fill" data-item-order="0" transform="translate(321, 159)"></g><g id="g-root-tx_updatest_18it4c1u03z7x-fill" data-item-order="0" transform="translate(483, 147)"><g id="tx_updatest_18it4c1u03z7x-fill" stroke="none" fill="#484848"><g><text style="font: bold 20px Roboto, sans-serif; white-space: pre;" font-weight="bold" font-size="20px" font-family="Roboto, sans-serif"><tspan x="12.5" y="34" dominant-baseline="ideographic">Update Storage</tspan></text></g></g></g><g id="g-root-colu_mcc2sxu03z7q-fill" data-item-order="0" transform="translate(729, 159)"></g><g id="g-root-tx_userinit_1lu9jjlu0kt1j-fill" data-item-order="0" transform="translate(75, 183)"><g id="tx_userinit_1lu9jjlu0kt1j-fill" stroke="none" fill="#484848"><g><text style="font: 15px Roboto, sans-serif; white-space: pre;" font-size="15px" font-family="Roboto, sans-serif"><tspan x="13.87" y="28" dominant-baseline="ideographic">User initiates data </tspan><tspan x="57.37" y="46" dominant-baseline="ideographic">reset</tspan></text></g></g></g><g id="g-root-tx_systemup_143m3apu03wuf-fill" data-item-order="0" transform="translate(483, 183)"><g id="tx_systemup_143m3apu03wuf-fill" stroke="none" fill="#484848"><g><text style="font: 15px Roboto, sans-serif; white-space: pre;" font-size="15px" font-family="Roboto, sans-serif"><tspan x="14.43" y="28" dominant-baseline="ideographic">System updates </tspan><tspan x="25.15" y="46" dominant-baseline="ideographic">local storage</tspan></text></g></g></g><g id="g-root-1_v9uib5u03xfr-fill" data-item-order="0" transform="translate(117, 435)"></g><g id="g-root-tx_cleardat_mg2xblu03x8p-fill" data-item-order="0" transform="translate(279, 435)"><g id="tx_cleardat_mg2xblu03x8p-fill" stroke="none" fill="#484848"><g><text style="font: bold 20px Roboto, sans-serif; white-space: pre;" font-weight="bold" font-size="20px" font-family="Roboto, sans-serif"><tspan x="14.82" y="34" dominant-baseline="ideographic">Clear Data </tspan><tspan x="37.3" y="58" dominant-baseline="ideographic">Array</tspan></text></g></g></g><g id="g-root-exch_i09f75u03y0z-fill" data-item-order="0" transform="translate(525, 435)"></g><g id="g-root-tx_updateco_hs592pu05bm1-fill" data-item-order="0" transform="translate(687, 435)"><g id="tx_updateco_hs592pu05bm1-fill" stroke="none" fill="#484848"><g><text style="font: bold 20px Roboto, sans-serif; white-space: pre;" font-weight="bold" font-size="20px" font-family="Roboto, sans-serif"><tspan x="26.01" y="34" dominant-baseline="ideographic">Update </tspan><tspan x="14.15" y="58" dominant-baseline="ideographic">Container</tspan></text></g></g></g><g id="g-root-tx_systemcl_i09f75u03y0y-fill" data-item-order="0" transform="translate(279, 495)"><g id="tx_systemcl_i09f75u03y0y-fill" stroke="none" fill="#484848"><g><text style="font: 15px Roboto, sans-serif; white-space: pre;" font-size="15px" font-family="Roboto, sans-serif"><tspan x="14.75" y="28" dominant-baseline="ideographic">System clears the </tspan><tspan x="40.84" y="46" dominant-baseline="ideographic">data array</tspan></text></g></g></g><g id="g-root-tx_systemre_dcbqy9u05cec-fill" data-item-order="0" transform="translate(687, 495)"><g id="tx_systemre_dcbqy9u05cec-fill" stroke="none" fill="#484848"><g><text style="font: 15px Roboto, sans-serif; white-space: pre;" font-size="15px" font-family="Roboto, sans-serif"><tspan x="16.03" y="28" dominant-baseline="ideographic">System refreshes </tspan><tspan x="21.58" y="46" dominant-baseline="ideographic">the UI container</tspan></text></g></g></g><g id="g-root-tf_140hpv5u05beo-stroke" data-item-order="-588000" transform="translate(-9, -9)"></g><g id="g-root--1.line_fr_mb31gxu0krnp-stroke" data-item-order="-469683" transform="translate(146.5, 231)"><g id="-1.line_fr_mb31gxu0krnp-stroke" fill="none" stroke-linecap="round" stroke-linejoin="round" stroke-miterlimit="4" stroke="#484848" stroke-width="2" stroke-dasharray="5.0, 7.0"><g><path d="M 10 202L 10 10"></path></g></g></g><g id="g-root--1.line_1_fr_dfg181u0ksgf-stroke" data-item-order="-469679" transform="translate(350.5, 231)"><g id="-1.line_1_fr_dfg181u0ksgf-stroke" fill="none" stroke-linecap="round" stroke-linejoin="round" stroke-miterlimit="4" stroke="#484848" stroke-width="2" stroke-dasharray="5.0, 7.0"><g><path d="M 10 202L 10 10"></path></g></g></g><g id="g-root--1.line_2_fr_hv9jchu0ksg1-stroke" data-item-order="-469675" transform="translate(554.5, 231)"><g id="-1.line_2_fr_hv9jchu0ksg1-stroke" fill="none" stroke-linecap="round" stroke-linejoin="round" stroke-miterlimit="4" stroke="#484848" stroke-width="2" stroke-dasharray="5.0, 7.0"><g><path d="M 9.999992 202L 9.999992 10"></path></g></g></g><g id="g-root--1.line_3_fr_hv9jchu0ksg3-stroke" data-item-order="-469671" transform="translate(758.5, 231)"><g id="-1.line_3_fr_hv9jchu0ksg3-stroke" fill="none" stroke-linecap="round" stroke-linejoin="round" stroke-miterlimit="4" stroke="#484848" stroke-width="2" stroke-dasharray="5.0, 7.0"><g><path d="M 10 202L 10 10"></path></g></g></g><g id="g-root-1.g-1_1_fr_8zmj3lu0kt8t-stroke" data-item-order="-469668" transform="translate(85.00003051757812, 279)"><g id="1.g-1_1_fr_8zmj3lu0kt8t-stroke" fill="none" stroke-linecap="round" stroke-linejoin="round" stroke-miterlimit="4" stroke="#e55753" stroke-width="2"><g><path d="M 149.501869 13.1012C 145.370769 8.9678 138.668969 8.9661 134.535669 13.0974C 130.403969 17.2272 130.403969 23.923 134.535669 28.0529L 153.913969 47.4222L 99.582669 47.4222C 93.737969 47.4222 88.999969 52.1581 88.999969 58.0001C 88.999969 63.842 93.737969 68.5779 99.582669 68.5779L 153.913869 68.5779L 134.535669 87.9471C 130.403969 92.077 130.403969 98.7728 134.535669 102.9026C 138.668969 107.0339 145.370769 107.0322 149.501969 102.8988L 186.904169 65.4758C 191.031869 61.3458 191.031869 54.6542 186.904169 50.5242L 149.501869 13.1012ZM 42.906869 51.2384L 49.668869 58.0003L 42.906869 64.7623C 41.974369 65.6948 41.974369 67.2067 42.906869 68.1392C 43.839669 69.072 45.352269 69.0716 46.284669 68.1383L 54.725969 59.6884C 55.657569 58.7558 55.657569 57.2449 54.725969 56.3123L 46.284669 47.8623C 45.352269 46.929 43.839669 46.9286 42.906869 47.8615C 41.974369 48.794 41.974369 50.3059 42.906869 51.2384ZM 26.803069 51.2384L 33.565069 58.0003L 26.803069 64.7623C 25.870569 65.6948 25.870569 67.2067 26.803069 68.1392C 27.735969 69.072 29.248469 69.0716 30.180869 68.1383L 38.622269 59.6884C 39.553869 58.7558 39.553869 57.2449 38.622269 56.3123L 30.180869 47.8623C 29.248469 46.929 27.735969 46.9286 26.803069 47.8615C 25.870569 48.794 25.870569 50.3059 26.803069 51.2384ZM 10.699369 51.2381L 17.461269 58.0001L 10.699369 64.7621C 9.766869 65.6946 9.766869 67.2064 10.699369 68.1389C 11.632169 69.0718 13.144769 69.0714 14.077069 68.1381L 22.518469 59.6881C 23.450069 58.7556 23.450069 57.2446 22.518469 56.3121L 14.077069 47.8621C 13.144769 46.9288 11.632169 46.9284 10.699369 47.8612C 9.766869 48.7937 9.766869 50.3056 10.699369 51.2381ZM 71.949869 68.5775C 66.107869 68.5775 61.372069 63.8417 61.372069 57.9997C 61.372069 52.1577 66.107869 47.4219 71.949869 47.4219C 77.791869 47.4219 82.527669 52.1577 82.527669 57.9997C 82.527669 63.8417 77.791869 68.5775 71.949869 68.5775Z"></path></g></g></g><g id="g-root-2.g-2_fr_8zmj3lu0kt8v-stroke" data-item-order="-469664" transform="translate(289.0000305175781, 279)"><g id="2.g-2_fr_8zmj3lu0kt8v-stroke" fill="none" stroke-linecap="round" stroke-linejoin="round" stroke-miterlimit="4" stroke="#de8431" stroke-width="2"><g><path d="M 149.501869 13.1012C 145.370769 8.9678 138.668969 8.9661 134.535669 13.0974C 130.403969 17.2272 130.403969 23.923 134.535669 28.0529L 153.913969 47.4222L 99.582669 47.4222C 93.737969 47.4222 88.999969 52.1581 88.999969 58.0001C 88.999969 63.842 93.737969 68.5779 99.582669 68.5779L 153.913869 68.5779L 134.535669 87.9471C 130.403969 92.077 130.403969 98.7728 134.535669 102.9026C 138.668969 107.0339 145.370769 107.0322 149.501969 102.8988L 186.904169 65.4758C 191.031869 61.3458 191.031869 54.6542 186.904169 50.5242L 149.501869 13.1012ZM 42.906869 51.2384L 49.668869 58.0003L 42.906869 64.7623C 41.974369 65.6948 41.974369 67.2067 42.906869 68.1392C 43.839669 69.072 45.352269 69.0716 46.284669 68.1383L 54.725969 59.6884C 55.657569 58.7558 55.657569 57.2449 54.725969 56.3123L 46.284669 47.8623C 45.352269 46.929 43.839669 46.9286 42.906869 47.8615C 41.974369 48.794 41.974369 50.3059 42.906869 51.2384ZM 26.803069 51.2384L 33.565069 58.0003L 26.803069 64.7623C 25.870569 65.6948 25.870569 67.2067 26.803069 68.1392C 27.735969 69.072 29.248469 69.0716 30.180869 68.1383L 38.622269 59.6884C 39.553869 58.7558 39.553869 57.2449 38.622269 56.3123L 30.180869 47.8623C 29.248469 46.929 27.735969 46.9286 26.803069 47.8615C 25.870569 48.794 25.870569 50.3059 26.803069 51.2384ZM 10.699369 51.2381L 17.461269 58.0001L 10.699369 64.7621C 9.766869 65.6946 9.766869 67.2064 10.699369 68.1389C 11.632169 69.0718 13.144769 69.0714 14.077069 68.1381L 22.518469 59.6881C 23.450069 58.7556 23.450069 57.2446 22.518469 56.3121L 14.077069 47.8621C 13.144769 46.9288 11.632169 46.9284 10.699369 47.8612C 9.766869 48.7937 9.766869 50.3056 10.699369 51.2381ZM 71.949869 68.5775C 66.107869 68.5775 61.372069 63.8417 61.372069 57.9997C 61.372069 52.1577 66.107869 47.4219 71.949869 47.4219C 77.791869 47.4219 82.527669 52.1577 82.527669 57.9997C 82.527669 63.8417 77.791869 68.5775 71.949869 68.5775Z"></path></g></g></g><g id="g-root-3.g-3_1_fr_4jt0z5u0ku15-stroke" data-item-order="-469660" transform="translate(493, 279)"><g id="3.g-3_1_fr_4jt0z5u0ku15-stroke" fill="none" stroke-linecap="round" stroke-linejoin="round" stroke-miterlimit="4" stroke="#e0cb15" stroke-width="2"><g><path d="M 149.5019 13.1012C 145.3708 8.9678 138.669 8.9661 134.5357 13.0974C 130.404 17.2272 130.404 23.923 134.5357 28.0529L 153.914 47.4222L 99.5827 47.4222C 93.738 47.4222 89 52.1581 89 58.0001C 89 63.842 93.738 68.5779 99.5827 68.5779L 153.9139 68.5779L 134.5357 87.9471C 130.404 92.077 130.404 98.7728 134.5357 102.9026C 138.669 107.0339 145.3708 107.0322 149.502 102.8988L 186.9042 65.4758C 191.0319 61.3458 191.0319 54.6542 186.9042 50.5242L 149.5019 13.1012ZM 42.9069 51.2384L 49.6689 58.0003L 42.9069 64.7623C 41.9744 65.6948 41.9744 67.2067 42.9069 68.1392C 43.8397 69.072 45.3523 69.0716 46.2847 68.1383L 54.726 59.6884C 55.6576 58.7558 55.6576 57.2449 54.726 56.3123L 46.2847 47.8623C 45.3523 46.929 43.8397 46.9286 42.9069 47.8615C 41.9744 48.794 41.9744 50.3059 42.9069 51.2384ZM 26.8031 51.2384L 33.5651 58.0003L 26.8031 64.7623C 25.8706 65.6948 25.8706 67.2067 26.8031 68.1392C 27.736 69.072 29.2485 69.0716 30.1809 68.1383L 38.6223 59.6884C 39.5539 58.7558 39.5539 57.2449 38.6223 56.3123L 30.1809 47.8623C 29.2485 46.929 27.736 46.9286 26.8031 47.8615C 25.8706 48.794 25.8706 50.3059 26.8031 51.2384ZM 10.6994 51.2381L 17.4613 58.0001L 10.6994 64.7621C 9.7669 65.6946 9.7669 67.2064 10.6994 68.1389C 11.6322 69.0718 13.1448 69.0714 14.0771 68.1381L 22.5185 59.6881C 23.4501 58.7556 23.4501 57.2446 22.5185 56.3121L 14.0771 47.8621C 13.1448 46.9288 11.6322 46.9284 10.6994 47.8612C 9.7669 48.7937 9.7669 50.3056 10.6994 51.2381ZM 71.9499 68.5775C 66.1079 68.5775 61.3721 63.8417 61.3721 57.9997C 61.3721 52.1577 66.1079 47.4219 71.9499 47.4219C 77.7919 47.4219 82.5277 52.1577 82.5277 57.9997C 82.5277 63.8417 77.7919 68.5775 71.9499 68.5775Z"></path></g></g></g><g id="g-root-4.g-4_fr_4jt0z5u0ku17-stroke" data-item-order="-469656" transform="translate(697, 279)"><g id="4.g-4_fr_4jt0z5u0ku17-stroke" fill="none" stroke-linecap="round" stroke-linejoin="round" stroke-miterlimit="4" stroke="#3cc583" stroke-width="2"><g><path d="M 149.5019 13.1012C 145.3708 8.9678 138.669 8.9661 134.5357 13.0974C 130.404 17.2272 130.404 23.923 134.5357 28.0529L 153.914 47.4222L 99.5827 47.4222C 93.738 47.4222 89 52.1581 89 58.0001C 89 63.842 93.738 68.5779 99.5827 68.5779L 153.9139 68.5779L 134.5357 87.9471C 130.404 92.077 130.404 98.7728 134.5357 102.9026C 138.669 107.0339 145.3708 107.0322 149.502 102.8988L 186.9042 65.4758C 191.0319 61.3458 191.0319 54.6542 186.9042 50.5242L 149.5019 13.1012ZM 42.9069 51.2384L 49.6689 58.0003L 42.9069 64.7623C 41.9744 65.6948 41.9744 67.2067 42.9069 68.1392C 43.8397 69.072 45.3523 69.0716 46.2847 68.1383L 54.726 59.6884C 55.6576 58.7558 55.6576 57.2449 54.726 56.3123L 46.2847 47.8623C 45.3523 46.929 43.8397 46.9286 42.9069 47.8615C 41.9744 48.794 41.9744 50.3059 42.9069 51.2384ZM 26.8031 51.2384L 33.5651 58.0003L 26.8031 64.7623C 25.8706 65.6948 25.8706 67.2067 26.8031 68.1392C 27.736 69.072 29.2485 69.0716 30.1809 68.1383L 38.6223 59.6884C 39.5539 58.7558 39.5539 57.2449 38.6223 56.3123L 30.1809 47.8623C 29.2485 46.929 27.736 46.9286 26.8031 47.8615C 25.8706 48.794 25.8706 50.3059 26.8031 51.2384ZM 10.6994 51.2381L 17.4613 58.0001L 10.6994 64.7621C 9.7669 65.6946 9.7669 67.2064 10.6994 68.1389C 11.6322 69.0718 13.1448 69.0714 14.0771 68.1381L 22.5185 59.6881C 23.4501 58.7556 23.4501 57.2446 22.5185 56.3121L 14.0771 47.8621C 13.1448 46.9288 11.6322 46.9284 10.6994 47.8612C 9.7669 48.7937 9.7669 50.3056 10.6994 51.2381ZM 71.9499 68.5775C 66.1079 68.5775 61.3721 63.8417 61.3721 57.9997C 61.3721 52.1577 66.1079 47.4219 71.9499 47.4219C 77.7919 47.4219 82.5277 52.1577 82.5277 57.9997C 82.5277 63.8417 77.7919 68.5775 71.9499 68.5775Z"></path></g></g></g><g id="g-root-tx_datarese_4lzxtu0krnp-stroke" data-item-order="0" transform="translate(391, 39)"></g><g id="g-root-tx_clickres_1qa31o1u0ks9a-stroke" data-item-order="0" transform="translate(75, 123)"></g><g id="g-root-4_1heg1f5u0ktts-stroke" data-item-order="0" transform="translate(321, 159)"><g id="4_1heg1f5u0ktts-stroke" fill="none" stroke-linecap="round" stroke-linejoin="round" stroke-miterlimit="4" stroke="#de8431" stroke-width="2"><g><path d="M 35.330002 36.202499L 23.4825 24.3575C 23.013058 23.88858 22.749283 23.252274 22.749283 22.588751C 22.749283 21.925226 23.013058 21.288921 23.4825 20.82L 32.322498 11.9825C 33.298752 11.006545 34.881252 11.006545 35.857502 11.9825L 51.767502 27.8925C 52.743454 28.86875 52.743454 30.45125 51.767502 31.4275L 46.75 36.454998M 31.4375 12.865L 35.330002 24.895C 35.793701 26.613733 37.136265 27.956299 38.855 28.42L 50.885002 32.3125M 52.5 41.25L 50.2075 66.477501C 50.089527 67.768669 49.004036 68.755379 47.7075 68.75L 32.282501 68.75C 30.985964 68.755379 29.900475 67.768669 29.782501 66.477501L 27.5 41.25M 22.5 41.25L 57.5 41.25M 35 48.75L 35 61.25M 40 48.75L 40 61.25M 45 48.75L 45 61.25"></path></g></g></g><g id="g-root-tx_updatest_18it4c1u03z7x-stroke" data-item-order="0" transform="translate(483, 147)"></g><g id="g-root-colu_mcc2sxu03z7q-stroke" data-item-order="0" transform="translate(729, 159)"><g id="colu_mcc2sxu03z7q-stroke" fill="none" stroke-linecap="round" stroke-linejoin="round" stroke-miterlimit="4" stroke="#3cc583" stroke-width="2"><g><path d="M 25.625 34.375L 11.875 34.375L 11.875 68.125L 25.625 68.125L 25.625 34.375ZM 11.875 45.625L 25.625 45.625M 46.875 34.375L 33.125 34.375L 33.125 68.125L 46.875 68.125L 46.875 34.375ZM 33.125 45.625L 46.875 45.625M 68.125 34.375L 54.375 34.375L 54.375 68.125L 68.125 68.125L 68.125 34.375ZM 54.375 45.625L 68.125 45.625M 11.875 56.875L 25.625 56.875M 33.125 56.875L 46.875 56.875M 54.375 56.875L 68.125 56.875M 18.875126 28.375025L 18.875126 21.875C 18.875126 16.375 23.375126 11.875 28.875124 11.875L 51.375 11.875C 56.875 11.875 61.375 16.375 61.375 21.875L 61.375 28.375025M 18.875126 28.375025L 13.125 22.62495M 18.875126 28.375025L 24.375 22.62495M 61.375 28.375025L 55.625 22.62495M 61.375 28.375025L 66.875 22.62495"></path></g></g></g><g id="g-root-tx_userinit_1lu9jjlu0kt1j-stroke" data-item-order="0" transform="translate(75, 183)"></g><g id="g-root-tx_systemup_143m3apu03wuf-stroke" data-item-order="0" transform="translate(483, 183)"></g><g id="g-root-1_v9uib5u03xfr-stroke" data-item-order="0" transform="translate(117, 435)"><g id="1_v9uib5u03xfr-stroke" fill="none" stroke-linecap="round" stroke-linejoin="round" stroke-miterlimit="4" stroke="#e55753" stroke-width="2"><g><path d="M 52.9575 34.887501C 54.466988 39.486584 53.850307 44.518974 51.275002 48.6175M 23.735001 48.5825C 20.614458 43.571136 20.454298 37.262367 23.316538 32.099117C 26.178778 26.935873 31.613989 23.728888 37.517502 23.719999M 51.25 17.52L 51.25 21.27L 53.75 21.27M 43.75 21.27C 43.750004 25.412136 47.107864 28.77 51.25 28.77C 55.392136 28.77 58.75 25.412136 58.75 21.27C 58.75 17.127865 55.392136 13.77 51.25 13.77C 47.107864 13.77 43.750004 17.127865 43.750004 21.27ZM 33.75 38.720001C 33.75 37.339291 34.869286 36.220001 36.25 36.220001C 37.630714 36.220001 38.75 37.339291 38.75 38.720001L 38.75 50.605003L 48.549999 53.530003C 50.186195 54.001789 51.167793 55.670723 50.784996 57.329998C 50.459999 58.737503 48.919998 67.330002 48.66 68.769997L 33.3675 68.769997L 25.715 57.294998C 22.6775 52.649998 30.305 51.044998 33.7575 58.769997Z"></path></g></g></g><g id="g-root-tx_cleardat_mg2xblu03x8p-stroke" data-item-order="0" transform="translate(279, 435)"></g><g id="g-root-exch_i09f75u03y0z-stroke" data-item-order="0" transform="translate(525, 435)"><g id="exch_i09f75u03y0z-stroke" fill="none" stroke-linecap="round" stroke-linejoin="round" stroke-miterlimit="4" stroke="#e0cb15" stroke-width="2"><g><path d="M 56.25 43.75L 56.25 49.375C 56.251381 54.553242 52.053242 58.751381 46.875 58.75L 42.5 58.75M 51.25 48.75L 56.25 43.75L 61.25 48.75M 46.25 62.5L 42.5 58.75L 46.25 55M 57.172501 36.25C 61.648174 35.64864 64.991463 31.833385 65 27.317501C 65.033325 24.928877 64.092758 22.629625 62.394882 20.949196C 60.697002 19.268766 58.388153 18.351999 56.000004 18.41C 54.050213 14.076546 49.751804 11.278672 44.999996 11.25C 38.480003 11.332147 33.156082 16.486097 32.862503 23C 30.91275 22.60849 28.890593 23.121176 27.362892 24.394341C 25.835192 25.667503 24.966377 27.564114 25 29.5525C 24.984304 31.378784 25.720688 33.131081 27.036238 34.397923C 28.351786 35.664764 30.130606 36.334549 31.954998 36.25ZM 17.5 43.75L 30 43.75C 31.380713 43.75 32.5 44.869286 32.5 46.25L 32.5 66.25C 32.5 67.630707 31.380713 68.75 30 68.75L 17.5 68.75C 16.119287 68.75 15 67.630707 15 66.25L 15 46.25C 15 44.869286 16.119287 43.75 17.5 43.75ZM 23.75 61.875C 23.404823 61.875 23.125 62.154823 23.125 62.5C 23.125 62.845177 23.404823 63.125 23.75 63.125C 24.095177 63.125 24.375 62.845177 24.375 62.5C 24.375 62.154823 24.095177 61.875 23.75 61.875L 23.75 61.875"></path></g></g></g><g id="g-root-tx_updateco_hs592pu05bm1-stroke" data-item-order="0" transform="translate(687, 435)"></g><g id="g-root-tx_systemcl_i09f75u03y0y-stroke" data-item-order="0" transform="translate(279, 495)"></g><g id="g-root-tx_systemre_dcbqy9u05cec-stroke" data-item-order="0" transform="translate(687, 495)"></g></g></g></svg>